# xmcd CD database file
#
# Track frame offsets:
#	150
#	11449
#	21288
#	35045
#	48433
#	60805
#	71929
#	84926
#	98474
#	115547
#
# Disc length: 1693 seconds
#
# Revision: 1
# Processed by: cddbd v1.5PL3 Copyright (c) Steve Scherf et al.
# Submitted via: CDex 1.51
#
DISCID=6f069b0a
DTITLE=Good Old Country - Men Of Country Volume 2
DYEAR=2000
DGENRE=Country
TTITLE0=Porter Wagoner/Misery Loves Company
TTITLE1=Hank Locklin/Please Help Me, I'm Falling
TTITLE2=Willie Nelson/No Tomorrow In Sight
TTITLE3=Johnny Paycheck/She's All I Got
TTITLE4=Charlie Rich/Behind Closed Doors
TTITLE5=Don Gibson/Oh Lonesome Me
TTITLE6=Faron Young/It's Four In The Morning
TTITLE7=Jimmy Dean/Big Bad John
TTITLE8=Ray Price/For The Good Times
TTITLE9=Eddy Raven/I'm Gonna Get You
EXTD=YEAR: 2000
EXTT0=
EXTT1=
EXTT2=
EXTT3=
EXTT4=
EXTT5=
EXTT6=
EXTT7=
EXTT8=
EXTT9=
PLAYORDER=
